<svg id="visual" viewBox="0 0 900 600" width="900" height="600" xmlns="http://www.w3.org/2000/svg" xmlns:xlink="http://www.w3.org/1999/xlink" version="1.1"><path d="M0 37L82 37L82 73L164 73L164 61L245 61L245 55L327 55L327 37L409 37L409 67L491 67L491 55L573 55L573 85L655 85L655 79L736 79L736 31L818 31L818 73L900 73L900 43L900 0L900 0L818 0L818 0L736 0L736 0L655 0L655 0L573 0L573 0L491 0L491 0L409 0L409 0L327 0L327 0L245 0L245 0L164 0L164 0L82 0L82 0L0 0Z" fill="#b0235f"></path><path d="M0 211L82 211L82 163L164 163L164 235L245 235L245 175L327 175L327 199L409 199L409 241L491 241L491 157L573 157L573 163L655 163L655 307L736 307L736 199L818 199L818 265L900 265L900 163L900 41L900 71L818 71L818 29L736 29L736 77L655 77L655 83L573 83L573 53L491 53L491 65L409 65L409 35L327 35L327 53L245 53L245 59L164 59L164 71L82 71L82 35L0 35Z" fill="#bc2e61"></path><path d="M0 259L82 259L82 217L164 217L164 289L245 289L245 211L327 211L327 253L409 253L409 259L491 259L491 193L573 193L573 187L655 187L655 343L736 343L736 247L818 247L818 283L900 283L900 211L900 161L900 263L818 263L818 197L736 197L736 305L655 305L655 161L573 161L573 155L491 155L491 239L409 239L409 197L327 197L327 173L245 173L245 233L164 233L164 161L82 161L82 209L0 209Z" fill="#c73962"></path><path d="M0 391L82 391L82 337L164 337L164 361L245 361L245 325L327 325L327 361L409 361L409 295L491 295L491 253L573 253L573 277L655 277L655 385L736 385L736 337L818 337L818 403L900 403L900 295L900 209L900 281L818 281L818 245L736 245L736 341L655 341L655 185L573 185L573 191L491 191L491 257L409 257L409 251L327 251L327 209L245 209L245 287L164 287L164 215L82 215L82 257L0 257Z" fill="#d34463"></path><path d="M0 463L82 463L82 469L164 469L164 457L245 457L245 481L327 481L327 433L409 433L409 403L491 403L491 469L573 469L573 457L655 457L655 469L736 469L736 433L818 433L818 481L900 481L900 463L900 293L900 401L818 401L818 335L736 335L736 383L655 383L655 275L573 275L573 251L491 251L491 293L409 293L409 359L327 359L327 323L245 323L245 359L164 359L164 335L82 335L82 389L0 389Z" fill="#dd5065"></path><path d="M0 481L82 481L82 505L164 505L164 499L245 499L245 505L327 505L327 469L409 469L409 439L491 439L491 499L573 499L573 511L655 511L655 493L736 493L736 481L818 481L818 517L900 517L900 505L900 461L900 479L818 479L818 431L736 431L736 467L655 467L655 455L573 455L573 467L491 467L491 401L409 401L409 431L327 431L327 479L245 479L245 455L164 455L164 467L82 467L82 461L0 461Z" fill="#e75b66"></path><path d="M0 547L82 547L82 577L164 577L164 553L245 553L245 559L327 559L327 535L409 535L409 535L491 535L491 553L573 553L573 577L655 577L655 553L736 553L736 571L818 571L818 559L900 559L900 571L900 503L900 515L818 515L818 479L736 479L736 491L655 491L655 509L573 509L573 497L491 497L491 437L409 437L409 467L327 467L327 503L245 503L245 497L164 497L164 503L82 503L82 479L0 479Z" fill="#f16667"></path><path d="M0 601L82 601L82 601L164 601L164 601L245 601L245 601L327 601L327 601L409 601L409 601L491 601L491 601L573 601L573 601L655 601L655 601L736 601L736 601L818 601L818 601L900 601L900 601L900 569L900 557L818 557L818 569L736 569L736 551L655 551L655 575L573 575L573 551L491 551L491 533L409 533L409 533L327 533L327 557L245 557L245 551L164 551L164 575L82 575L82 545L0 545Z" fill="#fa7268"></path></svg>