<svg id="visual" viewBox="0 0 900 600" width="900" height="600" xmlns="http://www.w3.org/2000/svg" xmlns:xlink="http://www.w3.org/1999/xlink" version="1.1"><path d="M0 37L82 37L82 55L164 55L164 19L245 19L245 19L327 19L327 19L409 19L409 37L491 37L491 43L573 43L573 61L655 61L655 49L736 49L736 61L818 61L818 55L900 55L900 31L900 0L900 0L818 0L818 0L736 0L736 0L655 0L655 0L573 0L573 0L491 0L491 0L409 0L409 0L327 0L327 0L245 0L245 0L164 0L164 0L82 0L82 0L0 0Z" fill="#210089"></path><path d="M0 85L82 85L82 79L164 79L164 73L245 73L245 73L327 73L327 49L409 49L409 79L491 79L491 79L573 79L573 115L655 115L655 79L736 79L736 97L818 97L818 79L900 79L900 85L900 29L900 53L818 53L818 59L736 59L736 47L655 47L655 59L573 59L573 41L491 41L491 35L409 35L409 17L327 17L327 17L245 17L245 17L164 17L164 53L82 53L82 35L0 35Z" fill="#220094"></path><path d="M0 151L82 151L82 163L164 163L164 145L245 145L245 175L327 175L327 145L409 145L409 169L491 169L491 151L573 151L573 163L655 163L655 121L736 121L736 163L818 163L818 145L900 145L900 127L900 83L900 77L818 77L818 95L736 95L736 77L655 77L655 113L573 113L573 77L491 77L491 77L409 77L409 47L327 47L327 71L245 71L245 71L164 71L164 77L82 77L82 83L0 83Z" fill="#23009e"></path><path d="M0 205L82 205L82 229L164 229L164 211L245 211L245 199L327 199L327 193L409 193L409 241L491 241L491 205L573 205L573 187L655 187L655 151L736 151L736 229L818 229L818 181L900 181L900 157L900 125L900 143L818 143L818 161L736 161L736 119L655 119L655 161L573 161L573 149L491 149L491 167L409 167L409 143L327 143L327 173L245 173L245 143L164 143L164 161L82 161L82 149L0 149Z" fill="#2300a9"></path><path d="M0 331L82 331L82 385L164 385L164 295L245 295L245 385L327 385L327 295L409 295L409 409L491 409L491 343L573 343L573 337L655 337L655 397L736 397L736 397L818 397L818 343L900 343L900 319L900 155L900 179L818 179L818 227L736 227L736 149L655 149L655 185L573 185L573 203L491 203L491 239L409 239L409 191L327 191L327 197L245 197L245 209L164 209L164 227L82 227L82 203L0 203Z" fill="#2300b5"></path><path d="M0 451L82 451L82 421L164 421L164 367L245 367L245 463L327 463L327 391L409 391L409 457L491 457L491 385L573 385L573 451L655 451L655 457L736 457L736 439L818 439L818 409L900 409L900 391L900 317L900 341L818 341L818 395L736 395L736 395L655 395L655 335L573 335L573 341L491 341L491 407L409 407L409 293L327 293L327 383L245 383L245 293L164 293L164 383L82 383L82 329L0 329Z" fill="#2300c0"></path><path d="M0 547L82 547L82 553L164 553L164 559L245 559L245 553L327 553L327 541L409 541L409 553L491 553L491 535L573 535L573 559L655 559L655 547L736 547L736 559L818 559L818 559L900 559L900 541L900 389L900 407L818 407L818 437L736 437L736 455L655 455L655 449L573 449L573 383L491 383L491 455L409 455L409 389L327 389L327 461L245 461L245 365L164 365L164 419L82 419L82 449L0 449Z" fill="#2200cb"></path><path d="M0 601L82 601L82 601L164 601L164 601L245 601L245 601L327 601L327 601L409 601L409 601L491 601L491 601L573 601L573 601L655 601L655 601L736 601L736 601L818 601L818 601L900 601L900 601L900 539L900 557L818 557L818 557L736 557L736 545L655 545L655 557L573 557L573 533L491 533L491 551L409 551L409 539L327 539L327 551L245 551L245 557L164 557L164 551L82 551L82 545L0 545Z" fill="#2100d7"></path></svg>